<?xml version="1.0" encoding="UTF-8" standalone="no"?>
<!-- Generator: Adobe Illustrator 16.0.0, SVG Export Plug-In . SVG Version: 6.00 Build 0)  -->

<svg
   xmlns:osb="http://www.openswatchbook.org/uri/2009/osb"
   xmlns:dc="http://purl.org/dc/elements/1.1/"
   xmlns:cc="http://creativecommons.org/ns#"
   xmlns:rdf="http://www.w3.org/1999/02/22-rdf-syntax-ns#"
   xmlns:svg="http://www.w3.org/2000/svg"
   xmlns="http://www.w3.org/2000/svg"
   xmlns:sodipodi="http://sodipodi.sourceforge.net/DTD/sodipodi-0.dtd"
   xmlns:inkscape="http://www.inkscape.org/namespaces/inkscape"
   version="1.2"
   id="Layer_1"
   x="0px"
   y="0px"
   width="550px"
   height="250px"
   viewBox="0 0 550 250"
   overflow="scroll"
   xml:space="preserve"
   inkscape:version="0.91 r13725"
   sodipodi:docname="logo.dec.2016.app.test.svg"><metadata
     id="metadata51"><rdf:RDF><cc:Work
         rdf:about=""><dc:format>image/svg+xml</dc:format><dc:type
           rdf:resource="http://purl.org/dc/dcmitype/StillImage" /></cc:Work></rdf:RDF></metadata><defs
     id="defs49"><linearGradient
       id="linearGradient5645"
       osb:paint="solid"><stop
         style="stop-color:#001013;stop-opacity:1;"
         offset="0"
         id="stop5647" /></linearGradient></defs><sodipodi:namedview
     pagecolor="#ffffff"
     bordercolor="#666666"
     borderopacity="1"
     objecttolerance="10"
     gridtolerance="10"
     guidetolerance="10"
     inkscape:pageopacity="0"
     inkscape:pageshadow="2"
     inkscape:window-width="1393"
     inkscape:window-height="756"
     id="namedview47"
     showgrid="false"
     inkscape:zoom="2.9621346"
     inkscape:cx="48.985797"
     inkscape:cy="116.62546"
     inkscape:window-x="0"
     inkscape:window-y="0"
     inkscape:window-maximized="0"
     inkscape:current-layer="g5" /><g
     id="g3"><g
       id="g5"><rect
         style="fill:#ffffff;fill-opacity:1;stroke:none;stroke-opacity:1"
         id="rect5673"
         width="56.378269"
         height="152.25507"
         x="44.900051"
         y="48.456146" /><path
         fill-rule="evenodd"
         fill="none"
         d="M545.413,251.363c-181.818,0-363.636,0-545.454,0c0-85.228,0-170.454,0-255.682    c181.818,0,363.636,0,545.454,0C545.413,80.909,545.413,166.136,545.413,251.363z M113.38,50.939c1.302,0,2.531,0,3.761,0    c17.612,0,35.224,0.004,52.835-0.003c4.161-0.001,4.627-0.48,4.678-4.73c0.026-2.159,0.02-4.318,0.001-6.477    c-0.034-4.082-0.834-4.921-5.036-4.922c-45.109-0.016-90.218-0.017-135.327,0.001c-4.082,0.002-4.991,0.966-4.991,5.067    c-0.008,56.699-0.008,113.397,0,170.097c0,4.481,0.843,5.28,5.41,5.28c24.316,0.004,48.631,0.002,72.947,0.002    c5.432-0.001,5.642-0.212,5.643-5.824c0.002-27.725,0.001-55.449,0.001-83.174c0-1.181,0-2.362,0-3.638c1.315,0,2.221,0,3.128,0    c17.839,0,35.678,0.009,53.517-0.006c4.194-0.004,4.664-0.508,4.707-4.738c0.022-2.159,0.024-4.318,0-6.477    c-0.046-4.17-0.534-4.669-4.762-4.671c-17.044-0.013-34.087-0.005-51.131-0.005c-1.776,0-3.553,0-5.381,0    C113.38,88.01,113.38,69.612,113.38,50.939z M344.188,146.787c0-1.991,0-3.232,0-4.476c0-38.05-0.013-76.101,0.009-114.152    c0.006-10.097,0.607-10.007-9.771-9.913c-5.597,0.051-6.246,0.66-6.246,6.266c-0.001,61.449-0.001,122.899-0.001,184.347    c0,0.795-0.031,1.593,0.014,2.386c0.15,2.642,1.188,4.285,4.217,4.049c2.032-0.158,4.086-0.027,6.131-0.029    c4.891-0.006,5.644-0.755,5.646-5.735c0.009-14.199,0.004-28.397,0.003-42.595c0-1.07,0-2.14,0-4.128    c2.872,2.938,5.045,5.205,7.266,7.426c14.358,14.36,28.71,28.729,43.132,43.025c0.966,0.957,2.467,1.851,3.761,1.915    c4.646,0.229,9.313,0.188,13.965,0.05c2.834-0.083,3.831-2.432,2.143-4.779c-0.589-0.82-1.391-1.49-2.118-2.204    c-6.947-6.824-13.893-13.651-20.854-20.462c-7.702-7.534-15.447-15.025-23.123-22.586c-3.599-3.545-7.079-7.209-10.648-10.854    c5.494-5.03,10.827-9.947,16.197-14.824c11.493-10.438,23.036-20.82,34.449-31.345c0.884-0.815,1.44-2.704,1.148-3.836    c-0.219-0.846-2.014-1.712-3.169-1.807c-3.046-0.25-6.142,0.106-9.189-0.135c-3.22-0.254-5.675,0.902-7.945,3.028    c-5.626,5.272-11.325,10.468-17.005,15.682C363.04,129.507,353.874,137.904,344.188,146.787z M427.237,161.078    c1.648,0,2.885,0,4.121,0c25.902,0,51.805,0,77.706,0c0.909,0,1.817-0.006,2.727-0.001c2.958,0.016,4.377-1.426,4.302-4.409    c-0.068-2.726,0.14-5.469-0.094-8.176c-1.21-14.04-6.143-26.331-16.89-35.944c-8.379-7.495-18.365-10.885-29.298-12.275    c-22.937-2.915-45.709,10.639-54.072,32.165c-6.24,16.061-6.134,32.352-1.646,48.668c3.6,13.082,11.149,23.497,23.183,30.178    c9.295,5.16,19.443,6.413,29.949,5.997c20.871-0.825,35.649-10.994,45.463-29.062c1.192-2.196,0.592-3.745-1.354-4.844    c-2.562-1.445-5.19-2.785-7.863-4.014c-2.209-1.017-3.831-0.325-5.028,1.902c-6.799,12.658-17.231,19.929-31.73,20.717    c-13.273,0.723-24.755-2.932-32.34-14.712C429.343,179.454,427.68,170.626,427.237,161.078z M267.131,217.196    c1.818,0,3.645,0.117,5.452-0.019c18.25-1.371,34.218-12.171,34.486-31.848c0.121-8.88-1.714-17.254-9.027-22.799    c-5.614-4.255-12.058-7.53-18.422-10.648c-6.679-3.272-13.936-5.396-20.505-8.849c-5.594-2.94-8.286-8.163-7.539-14.793    c0.621-5.506,3.569-9.216,8.578-11.277c7.131-2.935,19.575-2.49,24.892,8.33c2.175,4.425,3.18,4.573,7.659,2.142    c1.99-1.08,4.006-2.113,6.017-3.154c2.413-1.25,2.994-3.317,1.551-5.368c-2.785-3.958-5.371-8.334-9.018-11.358    c-10.412-8.632-22.559-9.207-35.078-5.699c-10.713,3.001-17.767,9.996-20.226,20.878c-2.709,11.99,0.889,22.091,10.307,30.139    c5.988,5.117,13.113,7.908,20.27,10.837c6.57,2.688,13.267,5.422,19.187,9.251c7.146,4.62,7.23,16.957,0.982,22.833    c-5.539,5.211-12.359,6.425-19.538,6.249c-10.273-0.253-18.842-3.602-23.518-13.668c-1.108-2.387-3.119-2.728-5.398-1.458    c-2.672,1.49-5.326,3.017-8.033,4.441c-2.058,1.083-2.543,2.795-1.336,4.513c2.903,4.131,5.538,8.67,9.237,11.975    C246.26,215.131,256.314,217.63,267.131,217.196z M207.855,158.995c0-15.561-0.052-31.122,0.018-46.683    c0.049-10.841,0.249-9.9-10.069-9.891c-5.434,0.005-5.982,0.565-5.982,6.075c-0.002,33.507-0.001,67.014,0.001,100.521    c0,0.908-0.037,1.822,0.052,2.724c0.234,2.371,1.323,3.748,3.969,3.564c2.035-0.141,4.087-0.025,6.131-0.027    c5.18-0.003,5.875-0.685,5.877-5.851C207.859,192.616,207.855,175.806,207.855,158.995z M211.728,66.574    c0.07-6.799-5.083-12.173-11.818-12.325c-6.526-0.146-12.23,5.37-12.356,11.949c-0.127,6.649,5.281,12.181,11.966,12.241    C206.465,78.5,211.656,73.455,211.728,66.574z"
         id="path7" /><path
         fill-rule="evenodd"
         fill="#0B0C0D"
         d="M113.38,50.939c0,18.673,0,37.071,0,55.781c1.828,0,3.604,0,5.381,0    c17.044,0,34.087-0.007,51.131,0.005c4.228,0.002,4.716,0.501,4.762,4.671c0.024,2.159,0.022,4.318,0,6.477    c-0.042,4.229-0.513,4.733-4.707,4.738c-17.839,0.016-35.678,0.006-53.517,0.006c-0.907,0-1.813,0-3.128,0    c0,1.276,0,2.458,0,3.638c0,27.725,0.001,55.449-0.001,83.174c0,5.612-0.21,5.823-5.643,5.824    c-24.316,0-48.631,0.002-72.947-0.002c-4.567,0-5.41-0.799-5.41-5.28c-0.008-56.699-0.008-113.398,0-170.097    c0-4.102,0.91-5.065,4.991-5.067c45.109-0.018,90.218-0.017,135.327-0.001c4.201,0.001,5.001,0.84,5.036,4.922    c0.018,2.159,0.024,4.318-0.001,6.477c-0.05,4.25-0.517,4.729-4.678,4.73c-17.612,0.008-35.224,0.003-52.835,0.003    C115.912,50.939,114.682,50.939,113.38,50.939z M110.668,212.287c0-30.907,0-61.604,0-92.554c20.6,0,40.777,0,61.043,0    c0-3.49,0-6.722,0-10.326c-20.424,0-40.682,0-60.918,0c0-20.627,0-40.877,0-61.379c20.448,0,40.628,0,60.85,0    c0-3.595,0-6.933,0-10.151c-46.628,0-93.016,0-139.41,0c0,58.264,0,116.261,0,174.409    C58.262,212.287,84.122,212.287,110.668,212.287z"
         id="path9" /><path
         fill-rule="evenodd"
         fill="#131415"
         d="M344.188,146.787c9.686-8.883,18.852-17.28,28.009-25.687    c5.68-5.214,11.379-10.41,17.005-15.682c2.271-2.126,4.726-3.283,7.945-3.028c3.048,0.241,6.144-0.114,9.189,0.135    c1.155,0.095,2.95,0.961,3.169,1.807c0.292,1.132-0.265,3.021-1.148,3.836c-11.413,10.525-22.956,20.908-34.449,31.345    c-5.37,4.877-10.703,9.794-16.197,14.824c3.569,3.645,7.05,7.309,10.648,10.854c7.676,7.561,15.421,15.052,23.123,22.586    c6.961,6.811,13.906,13.638,20.854,20.462c0.728,0.714,1.529,1.384,2.118,2.204c1.688,2.348,0.691,4.696-2.143,4.779    c-4.652,0.139-9.319,0.179-13.965-0.05c-1.294-0.064-2.795-0.958-3.761-1.915c-14.422-14.297-28.773-28.665-43.132-43.025    c-2.221-2.221-4.394-4.487-7.266-7.426c0,1.988,0,3.058,0,4.128c0.001,14.197,0.006,28.396-0.003,42.595    c-0.002,4.98-0.755,5.729-5.646,5.735c-2.045,0.002-4.099-0.129-6.131,0.029c-3.028,0.236-4.066-1.407-4.217-4.049    c-0.045-0.793-0.014-1.591-0.014-2.386c0-61.448,0-122.898,0.001-184.347c0-5.605,0.649-6.215,6.246-6.266    c10.379-0.094,9.777-0.184,9.771,9.913c-0.021,38.051-0.009,76.102-0.009,114.152    C344.188,143.555,344.188,144.796,344.188,146.787z M407.437,105.263c-4.054,0-7.235-0.249-10.354,0.09    c-1.982,0.215-4.314,0.806-5.73,2.075c-11.571,10.369-22.962,20.938-34.411,31.442c-4.974,4.563-9.958,9.114-15.57,14.251    c0-44.501,0-88.142,0-131.858c-3.615,0-6.846,0-10.123,0c0,63.775,0,127.332,0,190.952c3.447,0,6.672,0,10.267,0    c0-18.512,0-36.808,0-56.093c4.461,4.571,8.213,8.483,12.037,12.324c13.782,13.838,27.577,27.661,41.406,41.451    c1.003,1,2.272,2.334,3.489,2.413c4.455,0.289,8.941,0.114,14.133,0.114c-20.021-19.662-39.479-38.771-59.084-58.025    C371.39,138.1,389.05,122.012,407.437,105.263z"
         id="path11" /><path
         fill-rule="evenodd"
         fill="#0F1012"
         d="M427.237,161.078c0.442,9.548,2.105,18.376,7.136,26.19    c7.585,11.78,19.066,15.435,32.34,14.712c14.499-0.788,24.932-8.059,31.73-20.717c1.197-2.228,2.819-2.919,5.028-1.902    c2.673,1.229,5.302,2.568,7.863,4.014c1.945,1.099,2.546,2.647,1.354,4.844c-9.813,18.067-24.592,28.236-45.463,29.062    c-10.506,0.416-20.654-0.837-29.949-5.997c-12.033-6.681-19.583-17.096-23.183-30.178c-4.488-16.316-4.595-32.607,1.646-48.668    c8.363-21.526,31.136-35.08,54.072-32.165c10.933,1.39,20.919,4.781,29.298,12.275c10.747,9.613,15.68,21.904,16.89,35.944    c0.233,2.707,0.025,5.45,0.094,8.176c0.075,2.983-1.344,4.425-4.302,4.409c-0.909-0.005-1.817,0.001-2.727,0.001    c-25.901,0-51.804,0-77.706,0C430.122,161.078,428.886,161.078,427.237,161.078z M424.552,158.11c29.701,0,59.147,0,88.582,0    c0.85-10.438-0.588-20.127-5.063-29.161c-7.88-15.906-21.158-23.883-38.524-25.948c-21.911-2.604-43.123,9.82-51.153,30.366    c-6.332,16.201-6.041,32.656-0.98,49.024c3.502,11.325,10.372,20.351,20.845,26.274c8.665,4.901,18.106,6.066,27.937,5.863    c20.567-0.426,34.827-10.458,44.476-28.39c-3.112-1.578-6.09-3.089-9.059-4.595c-12.126,22.828-33.658,26.619-51.544,21.195    C432.111,197.295,424.151,178.509,424.552,158.11z"
         id="path13" /><path
         fill-rule="evenodd"
         fill="#0C0E0F"
         d="M267.131,217.196c-10.817,0.434-20.871-2.065-29.021-9.35    c-3.699-3.305-6.333-7.844-9.237-11.975c-1.207-1.718-0.722-3.43,1.336-4.513c2.707-1.425,5.36-2.951,8.033-4.441    c2.279-1.27,4.29-0.929,5.398,1.458c4.676,10.066,13.245,13.415,23.518,13.668c7.179,0.176,13.999-1.038,19.538-6.249    c6.248-5.876,6.163-18.213-0.982-22.833c-5.92-3.829-12.617-6.563-19.187-9.251c-7.157-2.929-14.281-5.72-20.27-10.837    c-9.418-8.048-13.017-18.149-10.307-30.139c2.459-10.882,9.512-17.876,20.226-20.878c12.519-3.508,24.666-2.934,35.078,5.699    c3.646,3.024,6.232,7.399,9.018,11.358c1.443,2.051,0.862,4.118-1.551,5.368c-2.011,1.041-4.026,2.074-6.017,3.154    c-4.479,2.432-5.484,2.283-7.659-2.142c-5.316-10.819-17.761-11.264-24.892-8.33c-5.009,2.061-7.958,5.771-8.578,11.277    c-0.747,6.63,1.944,11.853,7.539,14.793c6.569,3.452,13.826,5.576,20.505,8.849c6.364,3.118,12.808,6.394,18.422,10.648    c7.313,5.545,9.148,13.919,9.027,22.799c-0.268,19.677-16.235,30.477-34.486,31.848    C270.775,217.313,268.949,217.196,267.131,217.196z M231.075,194.169c3.49,7.833,8.948,13.416,16.6,16.576    c13.944,5.76,27.977,5.568,41.535-0.991c19.679-9.521,19.461-38.101,3.881-47.92c-7.965-5.021-16.586-8.24-25.283-11.51    c-3.893-1.463-7.804-3.229-11.207-5.579c-9.349-6.456-10.663-18.81-3.156-26.588c7.232-7.494,22.839-7.356,29.968,0.41    c2.101,2.287,3.749,4.989,5.727,7.667c3.001-1.611,6.052-3.249,10.021-5.379c-3.648-4.231-6.457-8.625-10.308-11.723    c-8.909-7.165-19.434-7.659-30.092-5.152c-18.564,4.366-26.682,23.672-16.769,39.974c4.4,7.237,11.505,11.392,19.129,14.663    c8.108,3.48,16.576,6.329,24.219,10.638c10.71,6.037,11.572,21.203,2.377,29.32c-4.654,4.109-10.283,5.705-16.254,6.114    c-8.824,0.605-17.349-0.53-24.177-6.792c-2.688-2.466-4.656-5.718-7.119-8.821C237.427,190.61,234.395,192.311,231.075,194.169z"
         id="path15" /><path
         fill-rule="evenodd"
         fill="#1B1E21"
         d="M207.855,158.995c0,16.811,0.004,33.621-0.002,50.432    c-0.002,5.166-0.697,5.848-5.877,5.851c-2.044,0.002-4.097-0.113-6.131,0.027c-2.646,0.184-3.735-1.193-3.969-3.564    c-0.088-0.901-0.052-1.815-0.052-2.724c-0.002-33.507-0.003-67.014-0.001-100.521c0-5.509,0.548-6.07,5.982-6.075    c10.317-0.009,10.118-0.95,10.069,9.891C207.803,127.873,207.855,143.435,207.855,158.995z M204.825,212.227    c0-35.675,0-71.168,0-106.687c-3.429,0-6.658,0-9.812,0c0,35.719,0,71.198,0,106.687    C198.426,212.227,201.558,212.227,204.825,212.227z"
         id="path17" /><path
         fill-rule="evenodd"
         fill="#0D0F11"
         d="M211.728,66.574c-0.071,6.881-5.263,11.927-12.208,11.865    c-6.685-0.06-12.093-5.592-11.966-12.241c0.125-6.58,5.83-12.096,12.356-11.949C206.645,54.401,211.798,59.775,211.728,66.574z     M208.897,66.609c0.063-5.448-3.907-9.569-9.227-9.577c-5.02-0.008-9.316,4.273-9.337,9.306c-0.021,5.142,4.083,9.27,9.243,9.298    C205.028,75.667,208.835,71.98,208.897,66.609z"
         id="path19" /><path
         fill-rule="evenodd"
         fill="#88C1F9"
         d="M110.668,212.287c-26.547,0-52.406,0-78.436,0c0-58.148,0-116.145,0-174.409    c46.395,0,92.782,0,139.41,0c0,3.218,0,6.556,0,10.151c-20.222,0-40.402,0-60.85,0c0,20.502,0,40.752,0,61.379    c20.237,0,40.495,0,60.918,0c0,3.604,0,6.835,0,10.326c-20.266,0-40.443,0-61.043,0    C110.668,150.683,110.668,181.38,110.668,212.287z M85.48,173.161c-4.189,0.909-7.996,1.845-11.847,2.532    c-2.551,0.454-3.825-0.308-2.974-3.371c3.271-11.79,6.351-23.632,9.52-35.449c1.82-6.785,3.952-13.501,5.442-20.358    c1.78-8.193-2.566-12.917-11.026-12.403c-9.293,0.565-16.221,5.753-22.968,11.871c1.86,2.077,3.564,3.98,5.293,5.912    c1.987-1.51,3.783-2.875,6.348-4.824c-0.408,1.914-0.542,2.77-0.773,3.598c-3.709,13.303-7.663,26.544-11.059,39.927    c-1.915,7.545-3.505,15.272-4.155,23.009c-0.61,7.258,5.668,12.727,12.348,11.589C72.477,193.004,79.896,184.34,85.48,173.161z     M97.576,71.021c0.118-8.312-6.15-14.994-14.202-15.14c-9.822-0.178-18.241,8.519-18.321,18.926    c-0.066,8.647,6.056,15.273,14.284,15.459C88.655,90.478,97.432,81.217,97.576,71.021z"
         id="path21" /><path
         fill-rule="evenodd"
         fill="#85BCF2"
         d="M407.437,105.263c-18.387,16.749-36.047,32.837-53.94,49.136    c19.605,19.254,39.063,38.363,59.084,58.025c-5.191,0-9.678,0.175-14.133-0.114c-1.217-0.079-2.486-1.413-3.489-2.413    c-13.829-13.79-27.624-27.613-41.406-41.451c-3.824-3.841-7.576-7.753-12.037-12.324c0,19.285,0,37.581,0,56.093    c-3.595,0-6.819,0-10.267,0c0-63.62,0-127.177,0-190.952c3.277,0,6.508,0,10.123,0c0,43.717,0,87.357,0,131.858    c5.612-5.137,10.597-9.688,15.57-14.251c11.449-10.504,22.84-21.073,34.411-31.442c1.416-1.269,3.748-1.859,5.73-2.075    C400.201,105.014,403.383,105.263,407.437,105.263z"
         id="path23" /><path
         fill-rule="evenodd"
         fill="#86BEF6"
         d="M424.552,158.11c-0.4,20.398,7.56,39.185,25.516,44.63    c17.886,5.424,39.418,1.633,51.544-21.195c2.969,1.506,5.946,3.017,9.059,4.595c-9.648,17.932-23.908,27.964-44.476,28.39    c-9.83,0.203-19.271-0.962-27.937-5.863c-10.473-5.924-17.343-14.949-20.845-26.274c-5.061-16.368-5.352-32.823,0.98-49.024    c8.03-20.546,29.242-32.97,51.153-30.366c17.366,2.065,30.645,10.042,38.524,25.948c4.475,9.034,5.912,18.724,5.063,29.161    C483.699,158.11,454.253,158.11,424.552,158.11z M425.287,148.168c25.604,0,50.998,0,76.385,0    c0.695-15.928-12.64-34.49-36.005-35.469C444.527,111.813,425.974,127.584,425.287,148.168z"
         id="path25" /><path
         fill-rule="evenodd"
         fill="#87BFF6"
         d="M231.075,194.169c3.319-1.858,6.352-3.559,9.091-5.094    c2.463,3.104,4.431,6.355,7.119,8.821c6.828,6.262,15.353,7.397,24.177,6.792c5.971-0.409,11.6-2.005,16.254-6.114    c9.195-8.117,8.333-23.283-2.377-29.32c-7.643-4.309-16.111-7.157-24.219-10.638c-7.624-3.271-14.729-7.426-19.129-14.663    c-9.913-16.302-1.795-35.607,16.769-39.974c10.659-2.507,21.183-2.013,30.092,5.152c3.851,3.097,6.659,7.492,10.308,11.723    c-3.969,2.13-7.02,3.768-10.021,5.379c-1.978-2.678-3.626-5.379-5.727-7.667c-7.129-7.766-22.735-7.904-29.968-0.41    c-7.507,7.778-6.193,20.132,3.156,26.588c3.403,2.351,7.313,4.116,11.207,5.579c8.697,3.27,17.318,6.489,25.283,11.51    c15.58,9.819,15.798,38.399-3.881,47.92c-13.559,6.56-27.591,6.751-41.535,0.991C240.023,207.585,234.565,202.002,231.075,194.169    z"
         id="path27" /><path
         fill-rule="evenodd"
         fill="#87BFF7"
         d="M204.825,212.227c-3.268,0-6.399,0-9.812,0c0-35.489,0-70.968,0-106.687    c3.153,0,6.383,0,9.812,0C204.825,141.059,204.825,176.552,204.825,212.227z"
         id="path29" /><path
         fill-rule="evenodd"
         fill="#87BEF6"
         d="M208.897,66.609c-0.063,5.371-3.87,9.058-9.321,9.027    c-5.16-0.029-9.263-4.156-9.243-9.298c0.021-5.033,4.317-9.314,9.337-9.306C204.991,57.041,208.96,61.161,208.897,66.609z"
         id="path31" /><path
         d="M85.48,173.161c-5.583,11.179-13.003,19.843-25.851,22.031    c-6.68,1.138-12.958-4.331-12.348-11.589c0.65-7.736,2.241-15.464,4.155-23.009c3.396-13.383,7.35-26.624,11.059-39.927    c0.231-0.829,0.366-1.685,0.773-3.598c-2.565,1.949-4.361,3.313-6.348,4.824c-1.729-1.931-3.434-3.835-5.293-5.912    c6.747-6.117,13.674-11.306,22.968-11.871c8.459-0.513,12.806,4.21,11.026,12.403c-1.49,6.857-3.622,13.573-5.442,20.358    c-3.169,11.817-6.249,23.659-9.52,35.449c-0.851,3.063,0.423,3.825,2.974,3.371C77.484,175.006,81.291,174.07,85.48,173.161z     M57.113,119.012c1.904-1.521,3.471-3.008,5.275-4.102c0.777-0.471,2.237-0.465,3.027-0.027c0.49,0.271,0.614,1.849,0.376,2.692    c-4.1,14.525-8.505,28.967-12.352,43.558c-1.919,7.28-3.313,14.775-4.082,22.262c-0.612,5.975,4.069,10.179,9.586,9.821    c8.136-0.528,18.876-8.723,21.66-16.332c-2.765,0.304-5.65,0.837-8.543,0.878c-2.915,0.042-4.429-1.938-3.725-4.675    c2.864-11.132,5.778-22.25,8.763-33.351c2.108-7.844,4.618-15.588,6.465-23.491c1.616-6.911-1.617-10.386-8.78-10.035    c-8.135,0.398-14.305,4.772-20.212,10.042C55.453,117.208,56.136,117.95,57.113,119.012z M63.095,117.153    c-0.124,0.07-0.268,0.152-0.411,0.233c0.074,0.075,0.164,0.224,0.217,0.212c0.156-0.037,0.296-0.137,0.443-0.212    C63.268,117.314,63.191,117.243,63.095,117.153z"
         id="path33"
         style="fill-opacity:1;fill:#001013;stroke:none;stroke-opacity:1"
         fill-rule="evenodd"
         fill="#0D1013" /><path
         fill-rule="evenodd"
         fill="#0E1113"
         d="M97.576,71.021c-0.145,10.196-8.921,19.456-18.24,19.245    c-8.228-0.186-14.35-6.812-14.284-15.459c0.08-10.407,8.499-19.104,18.321-18.926C91.426,56.028,97.694,62.709,97.576,71.021z     M95.392,71.097c0.055-7.657-5.13-13.106-12.449-13.085c-8.509,0.024-15.659,7.616-15.736,16.707    c-0.064,7.636,5.179,13.393,12.235,13.435C87.671,88.201,95.328,80.014,95.392,71.097z"
         id="path35" /><path
         fill-rule="evenodd"
         fill="#0B0D0F"
         d="M425.287,148.168c0.687-20.584,19.24-36.355,40.38-35.469    c23.365,0.979,36.7,19.542,36.005,35.469C476.285,148.168,450.892,148.168,425.287,148.168z M428.307,145.404    c23.659,0,47.104,0,70.562,0c-1.52-17.403-15.431-29.422-34.486-29.935C446.121,114.977,430.738,127.662,428.307,145.404z"
         id="path37" /><path
         fill-rule="evenodd"
         fill="none"
         d="M57.113,119.012c-0.977-1.063-1.66-1.804-2.54-2.76    c5.907-5.27,12.077-9.644,20.212-10.042c7.163-0.351,10.396,3.125,8.78,10.035c-1.847,7.903-4.357,15.647-6.465,23.491    c-2.984,11.101-5.899,22.219-8.763,33.351c-0.705,2.737,0.81,4.717,3.725,4.675c2.893-0.041,5.779-0.574,8.543-0.878    c-2.784,7.609-13.524,15.804-21.66,16.332c-5.517,0.357-10.199-3.847-9.586-9.821c0.768-7.486,2.162-14.981,4.082-22.262    c3.847-14.591,8.251-29.033,12.352-43.558c0.238-0.843,0.114-2.42-0.376-2.692c-0.79-0.438-2.25-0.443-3.027,0.027    C60.583,116.004,59.017,117.492,57.113,119.012z"
         id="path39" /><path
         d="M63.095,117.153c0.096,0.089,0.173,0.161,0.25,0.233    c-0.147,0.075-0.288,0.175-0.443,0.212c-0.053,0.012-0.144-0.137-0.217-0.212C62.827,117.305,62.971,117.224,63.095,117.153z"
         id="path41"
         fill-rule="evenodd"
         fill="#88C1F9" /><path
         fill-rule="evenodd"
         fill="none"
         d="M95.392,71.097c-0.064,8.917-7.721,17.104-15.95,17.057    c-7.057-0.042-12.299-5.799-12.235-13.435c0.077-9.091,7.227-16.683,15.736-16.707C90.262,57.991,95.447,63.44,95.392,71.097z"
         id="path43" /><path
         fill-rule="evenodd"
         fill="none"
         d="M428.307,145.404c2.432-17.742,17.814-30.427,36.075-29.935    c19.056,0.513,32.967,12.532,34.486,29.935C475.411,145.404,451.966,145.404,428.307,145.404z"
         id="path45" /></g></g></svg>