<?xml version="1.0" encoding="UTF-8" standalone="no"?>
<svg
   xmlns:dc="http://purl.org/dc/elements/1.1/"
   xmlns:cc="http://creativecommons.org/ns#"
   xmlns:rdf="http://www.w3.org/1999/02/22-rdf-syntax-ns#"
   xmlns:svg="http://www.w3.org/2000/svg"
   xmlns="http://www.w3.org/2000/svg"
   xmlns:sodipodi="http://sodipodi.sourceforge.net/DTD/sodipodi-0.dtd"
   xmlns:inkscape="http://www.inkscape.org/namespaces/inkscape"
   width="1024"
   height="1024"
   id="svg2"
   version="1.1"
   inkscape:version="0.91 r13725"
   sodipodi:docname="icon_ios.svg"
   inkscape:export-filename="C:\Users\maistho\Downloads\icon.png"
   inkscape:export-xdpi="90"
   inkscape:export-ydpi="90">
  <metadata
     id="metadata10">
    <rdf:RDF>
      <cc:Work
         rdf:about="">
        <dc:format>image/svg+xml</dc:format>
        <dc:type
           rdf:resource="http://purl.org/dc/dcmitype/StillImage" />
        <dc:title />
      </cc:Work>
    </rdf:RDF>
  </metadata>
  <defs
     id="defs8" />
  <sodipodi:namedview
     pagecolor="#ffffff"
     bordercolor="#666666"
     borderopacity="1"
     objecttolerance="10"
     gridtolerance="10"
     guidetolerance="10"
     inkscape:pageopacity="1"
     inkscape:pageshadow="2"
     inkscape:window-width="1920"
     inkscape:window-height="1017"
     id="namedview6"
     showgrid="false"
     inkscape:zoom="0.5"
     inkscape:cx="-663.65002"
     inkscape:cy="383.33034"
     inkscape:window-x="3832"
     inkscape:window-y="-8"
     inkscape:window-maximized="1"
     inkscape:current-layer="g4149" />
  <g
     id="g4149"
     transform="matrix(2.7837004,0,0,2.7837004,242.95536,59.927055)">
    <path
       style="fill:#036892"
       d="m -29.135992,5.2351601 0,314.3296799 141.156342,0 0.18252,-166.4422 110.23312,0 0,-19.09966 -110.23312,0 0,-110.051887 110.23312,0 0,-18.7359329 -251.571982,0 z M 63.479229,33.582826 c 13.939975,-0.186504 25.331885,10.256162 27.622743,22.76773 2.182838,10.914223 -5.3e-5,21.100543 -6.912395,30.195729 C 78.004855,94.368148 70.365348,100.18896 60.178746,101.46227 52.538789,102.5537 45.444485,100.73503 39.07785,95.823634 29.800759,88.547488 26.708527,78.905879 27.618053,67.627847 28.891372,51.074611 41.623678,36.704478 57.995014,33.975923 c 1.63713,-0.181906 1.636295,-0.177338 4.12752,-0.340768 0.454756,-0.02843 0.907017,-0.04632 1.356695,-0.05231 z M 48.852954,120.26202 c 3.191132,-0.0416 6.414045,0.36794 9.688312,1.39115 8.003764,2.54667 12.732867,9.27775 12.914768,17.82724 0.181902,8.00374 -2.72771,15.46154 -4.72865,22.91957 -7.094246,25.64844 -14.370386,51.29654 -21.464633,76.94495 -1.011842,4.49644 -1.035532,4.84332 -1.819989,10.00484 4.729496,0.72761 9.095335,-1.09103 13.461024,-2.18246 2.364748,-0.72761 4.730143,-1.63735 7.094892,-2.36496 1.819037,-0.54572 3.637773,-0.90906 5.274909,0.91 1.637132,1.81902 0.545102,3.45525 -0.182507,5.09239 -4.911406,10.18661 -11.277684,19.10093 -19.827158,26.37707 -8.003771,6.91235 -17.098453,11.64077 -27.830772,13.096 -12.3694541,1.63715 -22.9204251,-6.54748 -25.4670771,-16.55219 -1.455236,-5.63903 -1.272659,-11.4601 -0.181237,-16.91721 2.546652,-12.91517 5.274319,-25.83111 8.548586,-38.56438 3.638074,-14.00657 7.8223371,-27.83145 11.6423151,-41.83804 1.964982,-6.96673 4.105154,-14.11519 6.248714,-21.77732 -5.772778,4.89231 -4.988941,5.93275 -11.523622,-0.77853 -2.1828441,-2.18285 -4.1839551,-4.36515 -6.1848961,-6.72988 -1.637133,-1.81904 -1.455294,-3.63843 0.363743,-5.09367 8.9132811,-7.09426 17.2802841,-14.73343 28.1945071,-18.55343 5.229734,-1.81903 10.460218,-3.14185 15.778771,-3.21114 z"
       id="path4"
       inkscape:connector-curvature="0" />
  </g>
</svg>
