<?xml version="1.0" encoding="utf-8"?>
<!-- Generator: Adobe Illustrator 16.0.0, SVG Export Plug-In . SVG Version: 6.00 Build 0)  -->
<!DOCTYPE svg PUBLIC "-//W3C//DTD SVG 1.1//EN" "http://www.w3.org/Graphics/SVG/1.1/DTD/svg11.dtd">
<svg version="1.1" id="Layer_1" xmlns="http://www.w3.org/2000/svg" xmlns:xlink="http://www.w3.org/1999/xlink" x="0px" y="0px"
	 width="708.66px" height="283.46px" viewBox="0 0 708.66 283.46" enable-background="new 0 0 708.66 283.46" xml:space="preserve">
<path fill="#00567D" d="M247.789,52.715c-3.759,0-6.963,1.326-9.615,3.979c-2.651,2.652-3.978,5.859-3.978,9.613
	c0,3.759,1.326,6.963,3.978,9.615c2.652,2.652,5.856,3.979,9.615,3.979c3.646,0,6.822-1.326,9.531-3.979
	c2.707-2.652,4.062-5.856,4.062-9.615c0-3.754-1.354-6.961-4.062-9.613C254.611,54.041,251.436,52.715,247.789,52.715z
	 M240.328,280.15h15.252V123.332h-15.252V280.15z M2,280.15h114.996V144.716h90.014v-15.25h-90.014V39.454h90.014V24.202H2V280.15z
	 M80.725,221.852c-1.648,4.228-9.939,20.267-22.671,27.535c-6.851,3.917-12.542,5.824-17.398,5.824
	c-4.958,0-9.207-1.745-12.284-5.054c-3.001-3.214-4.522-7.502-4.522-12.723c0-12.055,10.893-53.448,24.527-97.868
	c-2.1,1.761-9.898,8.517-9.898,8.517l-8.174-9.226c0,0,7.867-6.803,13.136-10.17c8.384-5.354,16.044-7.265,22.549-7.265
	c4.431,0,8.055,1.134,10.772,3.372c3.039,2.512,4.639,6.004,4.639,10.109c0,1.723,0,4.934-9.263,35.92
	c-9.475,31.832-12.852,46.488-13.938,53.233C56.713,230.923,80.725,221.852,80.725,221.852z M91.963,57.156
	c3.943,4.039,6.042,9.385,6.042,15.451c0,7.508-2.619,14.184-7.777,19.84c-6.67,7.336-13.858,8.885-18.734,8.885
	c-5.948,0-11.201-2.235-15.208-6.458c-3.952-4.142-5.965-9.47-5.965-15.835c0-7.631,2.529-14.252,7.535-19.688
	c5.08-5.539,11.583-8.468,18.788-8.468C82.662,50.884,87.958,53.052,91.963,57.156z M552.143,123.332H532.25l-76.752,70.286V0
	h-15.25v280.15h15.25v-82.223l82.387,82.223h21.717l-86.531-84.874L552.143,123.332z M707.799,196.271
	c0-23.315-6.688-41.882-20.059-55.698c-13.371-13.813-31.057-20.721-53.045-20.721c-21,0-38.404,7.57-52.219,22.711
	s-20.721,34.536-20.721,58.185c0,25.528,6.465,45.698,19.395,60.506c12.932,14.81,30.775,22.212,53.545,22.212
	c15.912,0,29.447-3.37,40.611-10.112c11.162-6.738,20.611-17.239,28.346-31.494l-13.26-6.798
	c-5.967,11.495-13.539,20.059-22.711,25.694c-9.174,5.637-20.17,8.455-32.986,8.455c-18.016,0-32.051-5.911-42.105-17.737
	c-10.059-11.824-15.25-28.733-15.584-50.726h130.793V196.271z M578.002,186.489c1.434-15.582,7.486-28.206,18.15-37.877
	c10.664-9.669,23.512-14.505,38.543-14.505c16.133,0,29.365,4.807,39.701,14.423c10.332,9.613,15.996,22.213,16.99,37.795
	L578.002,186.489z M389.688,210.444c-7.625-7.129-20.779-13.783-39.454-19.977c-10.389-3.314-18.125-7.514-23.209-12.597
	c-5.084-5.082-7.625-11.05-7.625-17.904c0-7.733,2.596-13.978,7.793-18.73c5.191-4.751,12.1-7.129,20.721-7.129
	c7.403,0,13.536,1.604,18.401,4.807c4.861,3.207,8.895,8.289,12.102,15.251l13.924-7.459c-4.422-9.062-10.141-15.803-17.158-20.224
	c-7.018-4.419-15.664-6.631-25.942-6.631c-14.148,0-25.227,3.621-33.238,10.857c-8.012,7.24-12.018,16.992-12.018,29.258
	c0,9.838,3.506,18.483,10.527,25.943c7.018,7.46,17.1,13.511,30.252,18.151c16.356,5.748,27.295,10.94,32.823,15.583
	c5.525,4.642,8.289,11.661,8.289,21.053c0,8.62-3.48,15.528-10.445,20.722c-6.961,5.195-15.912,7.791-26.854,7.791
	c-10.277,0-18.705-1.878-25.279-5.637c-6.576-3.756-11.744-9.67-15.5-17.736l-13.924,7.79c4.199,9.506,10.857,16.854,19.975,22.047
	c9.117,5.194,19.863,7.791,32.242,7.791c17.018,0,30.446-4.003,40.282-12.018c9.836-8.012,14.756-18.815,14.756-32.408
	C401.127,227.104,397.313,217.572,389.688,210.444z"/>
</svg>
