<?xml version="1.0" encoding="utf-8"?>
<!-- Generator: Adobe Illustrator 16.0.0, SVG Export Plug-In . SVG Version: 6.00 Build 0)  -->
<!DOCTYPE svg PUBLIC "-//W3C//DTD SVG 1.1//EN" "http://www.w3.org/Graphics/SVG/1.1/DTD/svg11.dtd">
<svg version="1.1" id="Layer_1" xmlns="http://www.w3.org/2000/svg" xmlns:xlink="http://www.w3.org/1999/xlink" x="0px" y="0px"
	 width="708.66px" height="283.46px" viewBox="0 0 708.66 283.46" enable-background="new 0 0 708.66 283.46" xml:space="preserve">
<rect x="7.496" y="29.563" fill="#FFFFFF" width="102.667" height="247.333"/>
<path fill="#00567D" d="M247.789,52.715c-3.759,0-6.963,1.326-9.615,3.979c-2.65,2.652-3.978,5.859-3.978,9.613
	c0,3.759,1.326,6.963,3.978,9.615c2.652,2.652,5.856,3.979,9.615,3.979c3.646,0,6.822-1.326,9.531-3.979
	c2.707-2.652,4.062-5.856,4.062-9.615c0-3.754-1.354-6.961-4.062-9.613C254.611,54.041,251.436,52.715,247.789,52.715z
	 M240.328,280.15h15.252V123.332h-15.252V280.15z M2,280.15h114.996V144.716h90.015v-15.25h-90.015V39.454h90.015V24.202H2V280.15z
	 M80.725,221.852c-1.648,4.228-9.939,20.267-22.671,27.535c-6.852,3.917-12.542,5.823-17.398,5.823
	c-4.958,0-9.207-1.744-12.284-5.053c-3.001-3.215-4.521-7.503-4.521-12.724c0-12.056,10.893-53.448,24.526-97.868
	c-2.1,1.761-9.897,8.518-9.897,8.518l-8.174-9.227c0,0,7.866-6.803,13.136-10.17c8.384-5.354,16.044-7.265,22.549-7.265
	c4.431,0,8.055,1.134,10.772,3.372c3.038,2.512,4.639,6.004,4.639,10.109c0,1.723,0,4.934-9.263,35.921
	c-9.476,31.832-12.853,46.487-13.938,53.232C56.713,230.923,80.725,221.852,80.725,221.852z M91.963,57.156
	c3.943,4.039,6.042,9.385,6.042,15.451c0,7.508-2.618,14.184-7.776,19.84c-6.67,7.336-13.858,8.885-18.734,8.885
	c-5.948,0-11.201-2.235-15.208-6.458c-3.952-4.142-5.965-9.47-5.965-15.835c0-7.631,2.529-14.252,7.535-19.688
	c5.08-5.539,11.583-8.468,18.788-8.468C82.662,50.884,87.958,53.052,91.963,57.156z M552.143,123.332H532.25l-76.752,70.287V0
	h-15.25v280.15h15.25v-82.223l82.388,82.223h21.717l-86.531-84.874L552.143,123.332z M707.8,196.271
	c0-23.314-6.688-41.882-20.06-55.698c-13.371-13.813-31.057-20.721-53.045-20.721c-21,0-38.404,7.57-52.219,22.711
	c-13.815,15.142-20.721,34.536-20.721,58.185c0,25.528,6.465,45.698,19.395,60.506c12.932,14.811,30.775,22.213,53.545,22.213
	c15.912,0,29.447-3.37,40.611-10.112c11.162-6.737,20.611-17.239,28.346-31.494l-13.26-6.798
	c-5.967,11.495-13.539,20.059-22.711,25.693c-9.174,5.638-20.17,8.455-32.986,8.455c-18.016,0-32.051-5.91-42.104-17.736
	c-10.06-11.824-15.25-28.732-15.584-50.727H707.8V196.271L707.8,196.271z M578.003,186.49c1.434-15.582,7.485-28.207,18.149-37.878
	c10.664-9.669,23.512-14.505,38.543-14.505c16.133,0,29.365,4.807,39.701,14.423c10.332,9.613,15.996,22.214,16.99,37.796
	L578.003,186.49z M389.688,210.444c-7.625-7.129-20.779-13.782-39.454-19.978c-10.389-3.313-18.125-7.514-23.209-12.596
	s-7.625-11.051-7.625-17.904c0-7.733,2.596-13.979,7.793-18.73c5.19-4.751,12.1-7.129,20.721-7.129
	c7.403,0,13.536,1.604,18.401,4.807c4.86,3.207,8.895,8.289,12.102,15.251l13.924-7.459c-4.422-9.063-10.141-15.804-17.157-20.225
	c-7.019-4.419-15.664-6.631-25.942-6.631c-14.148,0-25.227,3.621-33.238,10.857c-8.012,7.24-12.018,16.993-12.018,29.258
	c0,9.838,3.506,18.482,10.527,25.943c7.018,7.459,17.1,13.51,30.252,18.15c16.355,5.748,27.295,10.939,32.822,15.583
	c5.525,4.642,8.289,11.661,8.289,21.053c0,8.62-3.479,15.528-10.444,20.722c-6.961,5.195-15.912,7.791-26.854,7.791
	c-10.277,0-18.705-1.877-25.279-5.637c-6.575-3.756-11.743-9.67-15.5-17.736l-13.924,7.791c4.199,9.506,10.857,16.854,19.976,22.047
	c9.116,5.193,19.862,7.791,32.241,7.791c17.019,0,30.446-4.004,40.282-12.019c9.836-8.012,14.756-18.815,14.756-32.407
	C401.127,227.104,397.313,217.572,389.688,210.444z"/>
</svg>
