<svg xmlns="http://www.w3.org/2000/svg" viewBox="0 0 512 512">
  <circle cx="258.17" cy="145.36" r="121.49" fill="#edce07"/>
  <path 
  fill="#003852" 
  d="M256 0a160 160 0 0 0-144 229l144 283 143-279A160 160 0 0 0 256 0zm0 41.5c3.3 0 6.22 1.95 7.27 5.06l21.4 63.83h70.38c4.2 0 8.13 3.45 8.13 7.66 0 1.96-1.24 3.78-2.49 5.12l-1.39 1.2-57.36 41.15 22.2 64.54a7.6 7.6 0 0 1-2.63 8.62c-1.34 1.05-2.64 1.86-4.26 1.86a8.97 8.97 0 0 1-4.79-1.72L256 198.58l-56.46 40.24c-1.34.9-3.2 1.72-4.79 1.72-1.62 0-2.92-.86-4.3-1.86a7.68 7.68 0 0 1-2.63-8.62l22.2-64.54-57.85-40.77c-2.35-1.87-3.11-3.73-3.2-5.4-.1-.4-.15-.87-.15-1.3a7.68 7.68 0 0 1 7.65-7.66h70.87l21.39-63.83A7.55 7.55 0 0 1 256 41.5z"/>
</svg>